<svg height="220" width="220" xmlns="http://www.w3.org/2000/svg"><g fill="#333"><path d="m60 10c-27.7 0-50 22.3-50 50v100c0 27.7 22.3 50 50 50h100c27.7 0 50-22.3 50-50v-100c0-27.7-22.3-50-50-50zm8.90625 17.78125h82.1875c22.7744 0 41.125 18.350601 41.125 41.125v82.1875c0 22.7744-18.3506 41.125-41.125 41.125h-82.1875c-22.774399 0-41.125-18.3506-41.125-41.125v-82.1875c0-22.774399 18.350601-41.125 41.125-41.125z" transform=""/><path d="m99.289993 48.628934h21.419997v117.809996h-21.419997z"/></g></svg>