<svg height="220" width="220" xmlns="http://www.w3.org/2000/svg"><g fill="#333"><path d="m60 10c-27.7 0-50 22.3-50 50v100c0 27.7 22.3 50 50 50h100c27.7 0 50-22.3 50-50v-100c0-27.7-22.3-50-50-50zm8.90625 17.78125h82.1875c22.7744 0 41.125 18.350601 41.125 41.125v82.1875c0 22.7744-18.3506 41.125-41.125 41.125h-82.1875c-22.774399 0-41.125-18.3506-41.125-41.125v-82.1875c0-22.774399 18.350601-41.125 41.125-41.125z" transform=""/><path d="m119.775 168.98893c-8.84006 0-16.77338-1.36-23.8-4.08-7.026702-2.71999-12.976696-6.68665-17.85-11.9-4.873353-5.32664-8.613349-11.78664-11.22-19.38-2.606677-7.59329-3.910009-16.31995-3.91-26.18-.000009-9.859927 1.473322-18.586585 4.42-26.179996 3.059983-7.59324 7.196646-13.996567 12.41-19.21 5.213302-5.326557 11.333296-9.349886 18.36-12.07 7.02662-2.719881 14.56327-4.079879 22.61-4.08 4.87326.000121 9.29326.396787 13.26 1.19 3.96658.680119 7.42325 1.473452 10.37 2.38 2.94657.906783 5.38324 1.870115 7.31 2.89 1.92657 1.020113 3.28657 1.756779 4.08 2.21l-6.29 17.51c-2.72009-1.699904-6.63009-3.286569-11.73-4.76-4.98675-1.586566-10.42674-2.379898-16.32-2.38-5.10006.000102-9.86006.906768-14.28 2.72-4.42005 1.700097-8.273379 4.306761-11.56 7.82-3.173372 3.513421-5.666703 7.933417-7.48 13.26-1.813366 5.326739-2.720032 11.503396-2.72 18.529996-.000032 6.23339.679967 11.95672 2.04 17.17 1.473298 5.21337 3.683296 9.7467 6.63 13.6 2.946623 3.74003 6.68662 6.68669 11.22 8.84 4.53328 2.04002 9.97327 3.06002 16.32 3.06 7.59326.00002 13.76992-.73665 18.53-2.21 4.75991-1.58664 8.44324-3.05997 11.05-4.42l5.78 17.51c-1.3601.90668-3.2301 1.81334-5.61 2.72-2.26676.90667-4.98676 1.81334-8.16 2.72-3.17342.79334-6.74342 1.41667-10.71 1.87-3.96674.56667-8.21674.85-12.75.85"/></g></svg>