<?xml version="1.0" encoding="UTF-8" standalone="no"?>
<!DOCTYPE svg PUBLIC "-//W3C//DTD SVG 1.1//EN"
 "http://www.w3.org/Graphics/SVG/1.1/DTD/svg11.dtd">
<!-- Generated by graphviz version 2.40.1 (20161225.0304)
 -->
<!-- Title: G Pages: 1 -->
<svg width="313pt" height="184pt"
 viewBox="0.00 0.00 313.33 184.00" xmlns="http://www.w3.org/2000/svg" xmlns:xlink="http://www.w3.org/1999/xlink">
<g id="graph0" class="graph" transform="scale(1 1) rotate(0) translate(4 180)">
<title>G</title>
<polygon fill="#ffffff" stroke="transparent" points="-4,4 -4,-180 309.3344,-180 309.3344,4 -4,4"/>
<g id="clust1" class="cluster">
<title>cluster_Global</title>
<path fill="none" stroke="#c0c0c0" d="M149.1161,-8C149.1161,-8 285.3344,-8 285.3344,-8 291.3344,-8 297.3344,-14 297.3344,-20 297.3344,-20 297.3344,-156 297.3344,-156 297.3344,-162 291.3344,-168 285.3344,-168 285.3344,-168 149.1161,-168 149.1161,-168 143.1161,-168 137.1161,-162 137.1161,-156 137.1161,-156 137.1161,-20 137.1161,-20 137.1161,-14 143.1161,-8 149.1161,-8"/>
<text text-anchor="middle" x="217.2252" y="-155.2" font-family="Times,serif" font-size="11.00" fill="#c0c0c0">Global</text>
</g>
<g id="clust2" class="cluster">
<title>cluster_\Contacts</title>
<path fill="none" stroke="#c0c0c0" d="M157.1161,-16C157.1161,-16 277.3344,-16 277.3344,-16 283.3344,-16 289.3344,-22 289.3344,-28 289.3344,-28 289.3344,-129 289.3344,-129 289.3344,-135 283.3344,-141 277.3344,-141 277.3344,-141 157.1161,-141 157.1161,-141 151.1161,-141 145.1161,-135 145.1161,-129 145.1161,-129 145.1161,-28 145.1161,-28 145.1161,-22 151.1161,-16 157.1161,-16"/>
<text text-anchor="middle" x="217.2252" y="-128.2" font-family="Times,serif" font-size="11.00" fill="#c0c0c0">Contacts</text>
</g>
<!-- \\Contacts\\ContactsException -->
<g id="node1" class="node">
<title>\\Contacts\\ContactsException</title>
<polygon fill="none" stroke="#000000" points="281.4437,-114 153.0068,-114 153.0068,-78 281.4437,-78 281.4437,-114"/>
<text text-anchor="middle" x="217.2252" y="-92.7" font-family="Courier,monospace" font-size="11.00" fill="#000000">ContactsException</text>
</g>
<!-- \\Exception -->
<g id="node3" class="node">
<title>\\Exception</title>
<ellipse fill="none" stroke="#000000" cx="40.5581" cy="-96" rx="40.6162" ry="18"/>
<text text-anchor="middle" x="40.5581" y="-91.8" font-family="Times,serif" font-size="14.00" fill="#c0c0c0">xception</text>
</g>
<!-- \\Contacts\\ContactsException&#45;&gt;\\Exception -->
<g id="edge1" class="edge">
<title>\\Contacts\\ContactsException&#45;&gt;\\Exception</title>
<path fill="none" stroke="#000000" d="M152.9446,-96C132.6227,-96 110.4623,-96 91.2318,-96"/>
<polygon fill="none" stroke="#000000" points="91.1748,-92.5001 81.1748,-96 91.1748,-99.5001 91.1748,-92.5001"/>
</g>
<!-- \\Contacts\\Config -->
<g id="node2" class="node">
<title>\\Contacts\\Config</title>
<polygon fill="none" stroke="#000000" points="244.8331,-60 189.6174,-60 189.6174,-24 244.8331,-24 244.8331,-60"/>
<text text-anchor="middle" x="217.2252" y="-38.7" font-family="Courier,monospace" font-size="11.00" fill="#000000">Config</text>
</g>
</g>
</svg>
