<?xml version="1.0" encoding="UTF-8" standalone="no"?>
<!DOCTYPE svg PUBLIC "-//W3C//DTD SVG 1.1//EN"
 "http://www.w3.org/Graphics/SVG/1.1/DTD/svg11.dtd">
<!-- Generated by graphviz version 2.40.1 (20161225.0304)
 -->
<!-- Title: G Pages: 1 -->
<svg width="384pt" height="274pt"
 viewBox="0.00 0.00 384.44 274.00" xmlns="http://www.w3.org/2000/svg" xmlns:xlink="http://www.w3.org/1999/xlink">
<g id="graph0" class="graph" transform="scale(1 1) rotate(0) translate(4 270)">
<title>G</title>
<polygon fill="#ffffff" stroke="transparent" points="-4,4 -4,-270 380.4365,-270 380.4365,4 -4,4"/>
<g id="clust1" class="cluster">
<title>cluster_Global</title>
<path fill="none" stroke="#c0c0c0" d="M20,-44C20,-44 356.4365,-44 356.4365,-44 362.4365,-44 368.4365,-50 368.4365,-56 368.4365,-56 368.4365,-246 368.4365,-246 368.4365,-252 362.4365,-258 356.4365,-258 356.4365,-258 20,-258 20,-258 14,-258 8,-252 8,-246 8,-246 8,-56 8,-56 8,-50 14,-44 20,-44"/>
<text text-anchor="middle" x="188.2183" y="-245.2" font-family="Times,serif" font-size="11.00" fill="#c0c0c0">Global</text>
</g>
<g id="clust2" class="cluster">
<title>cluster_\Contacts</title>
<path fill="none" stroke="#c0c0c0" d="M28,-52C28,-52 348.4365,-52 348.4365,-52 354.4365,-52 360.4365,-58 360.4365,-64 360.4365,-64 360.4365,-219 360.4365,-219 360.4365,-225 354.4365,-231 348.4365,-231 348.4365,-231 28,-231 28,-231 22,-231 16,-225 16,-219 16,-219 16,-64 16,-64 16,-58 22,-52 28,-52"/>
<text text-anchor="middle" x="188.2183" y="-218.2" font-family="Times,serif" font-size="11.00" fill="#c0c0c0">Contacts</text>
</g>
<!-- \\Contacts\\ContactsException -->
<g id="node1" class="node">
<title>\\Contacts\\ContactsException</title>
<polygon fill="none" stroke="#000000" points="352.5458,-96 224.1089,-96 224.1089,-60 352.5458,-60 352.5458,-96"/>
<text text-anchor="middle" x="288.3274" y="-74.7" font-family="Courier,monospace" font-size="11.00" fill="#000000">ContactsException</text>
</g>
<!-- \\Exception -->
<g id="node6" class="node">
<title>\\Exception</title>
<ellipse fill="none" stroke="#000000" cx="88.1091" cy="-18" rx="40.6162" ry="18"/>
<text text-anchor="middle" x="88.1091" y="-13.8" font-family="Times,serif" font-size="14.00" fill="#c0c0c0">xception</text>
</g>
<!-- \\Contacts\\ContactsException&#45;&gt;\\Exception -->
<g id="edge1" class="edge">
<title>\\Contacts\\ContactsException&#45;&gt;\\Exception</title>
<path fill="none" stroke="#000000" d="M228.2553,-59.998C197.1378,-50.673 159.8413,-39.4962 131.5493,-31.0178"/>
<polygon fill="none" stroke="#000000" points="132.5263,-27.6569 121.9425,-28.1389 130.5169,-34.3623 132.5263,-27.6569"/>
</g>
<!-- \\Contacts\\Config -->
<g id="node2" class="node">
<title>\\Contacts\\Config</title>
<polygon fill="none" stroke="#000000" points="315.9352,-150 260.7196,-150 260.7196,-114 315.9352,-114 315.9352,-150"/>
<text text-anchor="middle" x="288.3274" y="-128.7" font-family="Courier,monospace" font-size="11.00" fill="#000000">Config</text>
</g>
<!-- \\Contacts\\Vcard -->
<g id="node3" class="node">
<title>\\Contacts\\Vcard</title>
<polygon fill="none" stroke="#000000" points="315.3274,-204 261.3274,-204 261.3274,-168 315.3274,-168 315.3274,-204"/>
<text text-anchor="middle" x="288.3274" y="-182.7" font-family="Courier,monospace" font-size="11.00" fill="#000000">Vcard</text>
</g>
<!-- \\Contacts\\Contacts -->
<g id="node4" class="node">
<title>\\Contacts\\Contacts</title>
<polygon fill="none" stroke="#000000" points="122.418,-150 53.8003,-150 53.8003,-114 122.418,-114 122.418,-150"/>
<text text-anchor="middle" x="88.1091" y="-128.7" font-family="Courier,monospace" font-size="11.00" fill="#000000">Contacts</text>
</g>
<!-- \\Contacts\\Vcard&#45;&gt;\\Contacts\\Contacts -->
<g id="edge2" class="edge">
<title>\\Contacts\\Vcard&#45;&gt;\\Contacts\\Contacts</title>
<path fill="none" stroke="#000000" d="M261.3251,-178.7173C228.3323,-169.819 172.046,-154.6383 132.615,-144.0035"/>
<polygon fill="none" stroke="#000000" points="133.2938,-140.5616 122.7274,-141.3367 131.471,-147.3201 133.2938,-140.5616"/>
</g>
<!-- \\Contacts\\ContactsInterface -->
<g id="node5" class="node">
<title>\\Contacts\\ContactsInterface</title>
<polygon fill="none" stroke="#000000" points="152.3276,-204 23.8907,-204 23.8907,-168 152.3276,-168 152.3276,-204"/>
<text text-anchor="middle" x="88.1091" y="-182.7" font-family="Courier,monospace" font-size="11.00" fill="#000000">ContactsInterface</text>
</g>
<!-- \\Contacts\\Vcard&#45;&gt;\\Contacts\\ContactsInterface -->
<g id="edge3" class="edge">
<title>\\Contacts\\Vcard&#45;&gt;\\Contacts\\ContactsInterface</title>
<path fill="none" stroke="#000000" stroke-dasharray="1,5" d="M261.3251,-186C236.066,-186 197.1537,-186 162.6048,-186"/>
<polygon fill="none" stroke="#000000" points="162.5184,-182.5001 152.5184,-186 162.5184,-189.5001 162.5184,-182.5001"/>
</g>
</g>
</svg>
