<?xml version="1.0" encoding="UTF-8" standalone="no"?>
<!DOCTYPE svg PUBLIC "-//W3C//DTD SVG 1.1//EN"
 "http://www.w3.org/Graphics/SVG/1.1/DTD/svg11.dtd">
<!-- Generated by graphviz version 2.40.1 (20161225.0304)
 -->
<!-- Title: G Pages: 1 -->
<svg width="384pt" height="328pt"
 viewBox="0.00 0.00 384.44 328.00" xmlns="http://www.w3.org/2000/svg" xmlns:xlink="http://www.w3.org/1999/xlink">
<g id="graph0" class="graph" transform="scale(1 1) rotate(0) translate(4 324)">
<title>G</title>
<polygon fill="#ffffff" stroke="transparent" points="-4,4 -4,-324 380.4365,-324 380.4365,4 -4,4"/>
<g id="clust1" class="cluster">
<title>cluster_Global</title>
<path fill="none" stroke="#c0c0c0" d="M20,-44C20,-44 356.4365,-44 356.4365,-44 362.4365,-44 368.4365,-50 368.4365,-56 368.4365,-56 368.4365,-300 368.4365,-300 368.4365,-306 362.4365,-312 356.4365,-312 356.4365,-312 20,-312 20,-312 14,-312 8,-306 8,-300 8,-300 8,-56 8,-56 8,-50 14,-44 20,-44"/>
<text text-anchor="middle" x="188.2183" y="-299.2" font-family="Times,serif" font-size="11.00" fill="#c0c0c0">Global</text>
</g>
<g id="clust2" class="cluster">
<title>cluster_\Contacts</title>
<path fill="none" stroke="#c0c0c0" d="M28,-52C28,-52 348.4365,-52 348.4365,-52 354.4365,-52 360.4365,-58 360.4365,-64 360.4365,-64 360.4365,-273 360.4365,-273 360.4365,-279 354.4365,-285 348.4365,-285 348.4365,-285 28,-285 28,-285 22,-285 16,-279 16,-273 16,-273 16,-64 16,-64 16,-58 22,-52 28,-52"/>
<text text-anchor="middle" x="188.2183" y="-272.2" font-family="Times,serif" font-size="11.00" fill="#c0c0c0">Contacts</text>
</g>
<!-- \\Contacts\\ContactsException -->
<g id="node1" class="node">
<title>\\Contacts\\ContactsException</title>
<polygon fill="none" stroke="#000000" points="352.5458,-204 224.1089,-204 224.1089,-168 352.5458,-168 352.5458,-204"/>
<text text-anchor="middle" x="288.3274" y="-182.7" font-family="Courier,monospace" font-size="11.00" fill="#000000">ContactsException</text>
</g>
<!-- \\Exception -->
<g id="node6" class="node">
<title>\\Exception</title>
<ellipse fill="none" stroke="#000000" cx="88.1091" cy="-18" rx="40.6162" ry="18"/>
<text text-anchor="middle" x="88.1091" y="-13.8" font-family="Times,serif" font-size="14.00" fill="#c0c0c0">xception</text>
</g>
<!-- \\Contacts\\ContactsException&#45;&gt;\\Exception -->
<g id="edge1" class="edge">
<title>\\Contacts\\ContactsException&#45;&gt;\\Exception</title>
<path fill="none" stroke="#000000" d="M237.3066,-167.9525C232.6532,-165.3089 228.2002,-162.3335 224.2183,-159 179.1296,-121.2536 196.561,-86.6199 152.2183,-48 145.6245,-42.2572 137.7433,-37.3892 129.7998,-33.3532"/>
<polygon fill="none" stroke="#000000" points="131.0589,-30.0778 120.5195,-28.995 128.0833,-36.4139 131.0589,-30.0778"/>
</g>
<!-- \\Contacts\\Vcard -->
<g id="node2" class="node">
<title>\\Contacts\\Vcard</title>
<polygon fill="none" stroke="#000000" points="315.3274,-258 261.3274,-258 261.3274,-222 315.3274,-222 315.3274,-258"/>
<text text-anchor="middle" x="288.3274" y="-236.7" font-family="Courier,monospace" font-size="11.00" fill="#000000">Vcard</text>
</g>
<!-- \\Contacts\\ContactsInterface -->
<g id="node4" class="node">
<title>\\Contacts\\ContactsInterface</title>
<polygon fill="none" stroke="#000000" points="152.3276,-258 23.8907,-258 23.8907,-222 152.3276,-222 152.3276,-258"/>
<text text-anchor="middle" x="88.1091" y="-236.7" font-family="Courier,monospace" font-size="11.00" fill="#000000">ContactsInterface</text>
</g>
<!-- \\Contacts\\Vcard&#45;&gt;\\Contacts\\ContactsInterface -->
<g id="edge2" class="edge">
<title>\\Contacts\\Vcard&#45;&gt;\\Contacts\\ContactsInterface</title>
<path fill="none" stroke="#000000" stroke-dasharray="1,5" d="M261.3251,-240C236.066,-240 197.1537,-240 162.6048,-240"/>
<polygon fill="none" stroke="#000000" points="162.5184,-236.5001 152.5184,-240 162.5184,-243.5001 162.5184,-236.5001"/>
</g>
<!-- \\Contacts\\Config -->
<g id="node3" class="node">
<title>\\Contacts\\Config</title>
<polygon fill="none" stroke="#000000" points="315.9352,-150 260.7196,-150 260.7196,-114 315.9352,-114 315.9352,-150"/>
<text text-anchor="middle" x="288.3274" y="-128.7" font-family="Courier,monospace" font-size="11.00" fill="#000000">Config</text>
</g>
<!-- \\Contacts\\Helpers -->
<g id="node5" class="node">
<title>\\Contacts\\Helpers</title>
<polygon fill="none" stroke="#000000" points="319.5353,-96 257.1195,-96 257.1195,-60 319.5353,-60 319.5353,-96"/>
<text text-anchor="middle" x="288.3274" y="-74.7" font-family="Courier,monospace" font-size="11.00" fill="#000000">Helpers</text>
</g>
</g>
</svg>
