<?xml version="1.0" encoding="UTF-8" standalone="no"?>
<!DOCTYPE svg PUBLIC "-//W3C//DTD SVG 1.1//EN"
 "http://www.w3.org/Graphics/SVG/1.1/DTD/svg11.dtd">
<!-- Generated by graphviz version 2.38.0 (20140413.2041)
 -->
<!-- Title: G Pages: 1 -->
<svg width="228pt" height="149pt"
 viewBox="0.00 0.00 227.80 149.00" xmlns="http://www.w3.org/2000/svg" xmlns:xlink="http://www.w3.org/1999/xlink">
<g id="graph0" class="graph" transform="scale(1 1) rotate(0) translate(4 145)">
<title>G</title>
<polygon fill="white" stroke="none" points="-4,4 -4,-145 223.8,-145 223.8,4 -4,4"/>
<g id="clust1" class="cluster"><title>cluster_Global</title>
<path fill="none" stroke="gray" d="M152.193,-8C152.193,-8 199.8,-8 199.8,-8 205.8,-8 211.8,-14 211.8,-20 211.8,-20 211.8,-121 211.8,-121 211.8,-127 205.8,-133 199.8,-133 199.8,-133 152.193,-133 152.193,-133 146.193,-133 140.193,-127 140.193,-121 140.193,-121 140.193,-20 140.193,-20 140.193,-14 146.193,-8 152.193,-8"/>
<text text-anchor="middle" x="175.997" y="-120.2" font-family="Times,serif" font-size="11.00" fill="gray">Global</text>
</g>
<!-- \\vcard -->
<g id="node1" class="node"><title>\\vcard</title>
<polygon fill="none" stroke="black" points="202.997,-106 148.997,-106 148.997,-70 202.997,-70 202.997,-106"/>
<text text-anchor="middle" x="175.997" y="-84.7" font-family="Courier,monospace" font-size="11.00">vcard</text>
</g>
<!-- \\contact -->
<g id="node3" class="node"><title>\\contact</title>
<ellipse fill="none" stroke="black" cx="38.0967" cy="-88" rx="38.1937" ry="18"/>
<text text-anchor="middle" x="38.0967" y="-83.8" font-family="Times,serif" font-size="14.00" fill="gray">\contact</text>
</g>
<!-- \\vcard&#45;&gt;\\contact -->
<g id="edge1" class="edge"><title>\\vcard&#45;&gt;\\contact</title>
<path fill="none" stroke="black" stroke-dasharray="1,5" d="M148.794,-88C131.096,-88 107.229,-88 86.2773,-88"/>
<polygon fill="none" stroke="black" points="86.2657,-84.5001 76.2657,-88 86.2656,-91.5001 86.2657,-84.5001"/>
</g>
<!-- \\common -->
<g id="node2" class="node"><title>\\common</title>
<polygon fill="none" stroke="black" points="203.605,-52 148.389,-52 148.389,-16 203.605,-16 203.605,-52"/>
<text text-anchor="middle" x="175.997" y="-30.7" font-family="Courier,monospace" font-size="11.00">common</text>
</g>
</g>
</svg>
