<?xml version="1.0" encoding="UTF-8" standalone="no"?>
<!DOCTYPE svg PUBLIC "-//W3C//DTD SVG 1.1//EN"
 "http://www.w3.org/Graphics/SVG/1.1/DTD/svg11.dtd">
<!-- Generated by graphviz version 2.40.1 (20161225.0304)
 -->
<!-- Title: G Pages: 1 -->
<svg width="305pt" height="184pt"
 viewBox="0.00 0.00 305.22 184.00" xmlns="http://www.w3.org/2000/svg" xmlns:xlink="http://www.w3.org/1999/xlink">
<g id="graph0" class="graph" transform="scale(1 1) rotate(0) translate(4 180)">
<title>G</title>
<polygon fill="#ffffff" stroke="transparent" points="-4,4 -4,-180 301.2236,-180 301.2236,4 -4,4"/>
<g id="clust1" class="cluster">
<title>cluster_Global</title>
<path fill="none" stroke="#c0c0c0" d="M20,-8C20,-8 277.2236,-8 277.2236,-8 283.2236,-8 289.2236,-14 289.2236,-20 289.2236,-20 289.2236,-156 289.2236,-156 289.2236,-162 283.2236,-168 277.2236,-168 277.2236,-168 20,-168 20,-168 14,-168 8,-162 8,-156 8,-156 8,-20 8,-20 8,-14 14,-8 20,-8"/>
<text text-anchor="middle" x="148.6118" y="-155.2" font-family="Times,serif" font-size="11.00" fill="#c0c0c0">Global</text>
</g>
<g id="clust2" class="cluster">
<title>cluster_\Contacts</title>
<path fill="none" stroke="#c0c0c0" d="M28,-16C28,-16 269.2236,-16 269.2236,-16 275.2236,-16 281.2236,-22 281.2236,-28 281.2236,-28 281.2236,-129 281.2236,-129 281.2236,-135 275.2236,-141 269.2236,-141 269.2236,-141 28,-141 28,-141 22,-141 16,-135 16,-129 16,-129 16,-28 16,-28 16,-22 22,-16 28,-16"/>
<text text-anchor="middle" x="148.6118" y="-128.2" font-family="Times,serif" font-size="11.00" fill="#c0c0c0">Contacts</text>
</g>
<!-- \\Contacts\\Vcard -->
<g id="node1" class="node">
<title>\\Contacts\\Vcard</title>
<polygon fill="none" stroke="#000000" points="272.4204,-114 218.4204,-114 218.4204,-78 272.4204,-78 272.4204,-114"/>
<text text-anchor="middle" x="245.4204" y="-92.7" font-family="Courier,monospace" font-size="11.00" fill="#000000">Vcard</text>
</g>
<!-- \\Contacts\\Contacts -->
<g id="node3" class="node">
<title>\\Contacts\\Contacts</title>
<polygon fill="none" stroke="#000000" points="119.1175,-60 50.4997,-60 50.4997,-24 119.1175,-24 119.1175,-60"/>
<text text-anchor="middle" x="84.8086" y="-38.7" font-family="Courier,monospace" font-size="11.00" fill="#000000">Contacts</text>
</g>
<!-- \\Contacts\\Vcard&#45;&gt;\\Contacts\\Contacts -->
<g id="edge1" class="edge">
<title>\\Contacts\\Vcard&#45;&gt;\\Contacts\\Contacts</title>
<path fill="none" stroke="#000000" d="M218.1748,-86.8396C193.7567,-78.6299 157.4921,-66.4372 128.9401,-56.8376"/>
<polygon fill="none" stroke="#000000" points="129.7886,-53.4305 119.1946,-53.5611 127.5578,-60.0655 129.7886,-53.4305"/>
</g>
<!-- \\Contacts\\ContactInterface -->
<g id="node4" class="node">
<title>\\Contacts\\ContactInterface</title>
<polygon fill="none" stroke="#000000" points="145.4264,-114 24.1908,-114 24.1908,-78 145.4264,-78 145.4264,-114"/>
<text text-anchor="middle" x="84.8086" y="-92.7" font-family="Courier,monospace" font-size="11.00" fill="#000000">ContactInterface</text>
</g>
<!-- \\Contacts\\Vcard&#45;&gt;\\Contacts\\ContactInterface -->
<g id="edge2" class="edge">
<title>\\Contacts\\Vcard&#45;&gt;\\Contacts\\ContactInterface</title>
<path fill="none" stroke="#000000" stroke-dasharray="1,5" d="M218.1748,-96C200.9449,-96 177.8167,-96 155.6617,-96"/>
<polygon fill="none" stroke="#000000" points="155.5756,-92.5001 145.5755,-96 155.5755,-99.5001 155.5756,-92.5001"/>
</g>
<!-- \\Contacts\\Config -->
<g id="node2" class="node">
<title>\\Contacts\\Config</title>
<polygon fill="none" stroke="#000000" points="273.0282,-60 217.8126,-60 217.8126,-24 273.0282,-24 273.0282,-60"/>
<text text-anchor="middle" x="245.4204" y="-38.7" font-family="Courier,monospace" font-size="11.00" fill="#000000">Config</text>
</g>
</g>
</svg>
